<mxfile host="app.diagrams.net" modified="2024-07-31T08:29:19.127Z" agent="Mozilla/5.0 (Windows NT 10.0; Win64; x64) AppleWebKit/537.36 (KHTML, like Gecko) Chrome/127.0.0.0 Safari/537.36" version="24.7.2" etag="P8f3_Uq4aE3WiM1BSwdy" type="github">
  <diagram name="Page-1" id="W1h796e041VjXxFAX4PQ">
    <mxGraphModel>
      <root>
        <mxCell id="0" />
        <mxCell id="1" parent="0" />
      </root>
    </mxGraphModel>
  </diagram>
</mxfile>
